<?xml version="1.0" encoding="UTF-8" standalone="no"?>
<!DOCTYPE svg PUBLIC "-//W3C//DTD SVG 1.1//EN" "http://www.w3.org/Graphics/SVG/1.1/DTD/svg11.dtd">
<svg width="100%" height="100%" viewBox="0 0 1000 1000" version="1.1" xmlns="http://www.w3.org/2000/svg" xmlns:xlink="http://www.w3.org/1999/xlink" xml:space="preserve" xmlns:serif="http://www.serif.com/" style="fill-rule:evenodd;clip-rule:evenodd;stroke-linejoin:round;stroke-miterlimit:2;">
    <g transform="matrix(1,0,0,1,-1050,0)">
        <g id="Oracle" transform="matrix(1,0,0,1,1050,0)">
            <rect x="0" y="0" width="1000" height="1000" style="fill:none;"/>
            <clipPath id="_clip1">
                <rect x="0" y="0" width="1000" height="1000"/>
            </clipPath>
            <g clip-path="url(#_clip1)">
                <g transform="matrix(2.5022,0,0,1.79846,-3403.44,33.8398)">
                    <path d="M1619.34,486.912C1593.03,520.448 1573.25,537.216 1560,537.216C1546.75,537.216 1526.97,520.448 1500.66,486.912C1474.35,453.376 1458.06,426.112 1451.81,405.12C1447.76,391.808 1445.74,358.272 1445.74,304.512L1445.74,213.888C1445.74,160.128 1447.76,126.592 1451.81,113.28C1458.06,92.288 1474.35,65.024 1500.66,31.488C1526.97,-2.048 1546.75,-18.816 1560,-18.816C1573.25,-18.816 1593.03,-2.048 1619.34,31.488C1645.65,65.024 1661.94,92.288 1668.19,113.28C1672.24,126.592 1674.26,160.128 1674.26,213.888L1674.26,304.512C1674.26,358.272 1672.24,391.808 1668.19,405.12C1661.94,426.112 1645.65,453.376 1619.34,486.912ZM1541.51,411.648C1548.68,422.144 1554.85,427.392 1560,427.392C1565.15,427.392 1571.32,422.144 1578.49,411.648C1585.67,401.152 1590.73,391.168 1593.67,381.696C1596.62,372.224 1598.09,346.496 1598.09,304.512L1598.09,213.888C1598.09,171.904 1596.62,146.176 1593.67,136.704C1590.73,127.232 1585.67,117.248 1578.49,106.752C1571.32,96.256 1565.15,91.008 1560,91.008C1554.85,91.008 1548.68,96.256 1541.51,106.752C1534.33,117.248 1529.27,127.232 1526.33,136.704C1523.38,146.176 1521.91,171.904 1521.91,213.888L1521.91,304.512C1521.91,346.496 1523.38,372.224 1526.33,381.696C1529.27,391.168 1534.33,401.152 1541.51,411.648Z" style="fill:rgb(228,7,18);fill-rule:nonzero;"/>
                </g>
            </g>
        </g>
    </g>
</svg>
